<?xml version="1.0" encoding="UTF-8" ?>
<svg version="1.1" width="288" height="240" xmlns="http://www.w3.org/2000/svg" shape-rendering="crispEdges">
<rect x="16" y="0" width="16" height="16" fill="#1E1C32" />
<rect x="32" y="0" width="16" height="16" fill="#1E1C32" />
<rect x="48" y="0" width="16" height="16" fill="#1E1C32" />
<rect x="64" y="0" width="16" height="16" fill="#1E1C32" />
<rect x="80" y="0" width="16" height="16" fill="#1E1C32" />
<rect x="96" y="0" width="16" height="16" fill="#1E1C32" />
<rect x="112" y="0" width="16" height="16" fill="#1E1C32" />
<rect x="128" y="0" width="16" height="16" fill="#1E1C32" />
<rect x="144" y="0" width="16" height="16" fill="#1E1C32" />
<rect x="160" y="0" width="16" height="16" fill="#1E1C32" />
<rect x="176" y="0" width="16" height="16" fill="#1E1C32" />
<rect x="192" y="0" width="16" height="16" fill="#1E1C32" />
<rect x="208" y="0" width="16" height="16" fill="#1E1C32" />
<rect x="224" y="0" width="16" height="16" fill="#1E1C32" />
<rect x="240" y="0" width="16" height="16" fill="#1E1C32" />
<rect x="256" y="0" width="16" height="16" fill="#1E1C32" />
<rect x="0" y="16" width="16" height="16" fill="#1E1C32" />
<rect x="16" y="16" width="16" height="16" fill="#1E1C32" />
<rect x="32" y="16" width="16" height="16" fill="#1E1C32" />
<rect x="48" y="16" width="16" height="16" fill="#1E1C32" />
<rect x="64" y="16" width="16" height="16" fill="#1E1C32" />
<rect x="80" y="16" width="16" height="16" fill="#1E1C32" />
<rect x="96" y="16" width="16" height="16" fill="#1E1C32" />
<rect x="112" y="16" width="16" height="16" fill="#1E1C32" />
<rect x="128" y="16" width="16" height="16" fill="#1E1C32" />
<rect x="144" y="16" width="16" height="16" fill="#1E1C32" />
<rect x="160" y="16" width="16" height="16" fill="#1E1C32" />
<rect x="176" y="16" width="16" height="16" fill="#1E1C32" />
<rect x="192" y="16" width="16" height="16" fill="#1E1C32" />
<rect x="208" y="16" width="16" height="16" fill="#1E1C32" />
<rect x="224" y="16" width="16" height="16" fill="#1E1C32" />
<rect x="240" y="16" width="16" height="16" fill="#1E1C32" />
<rect x="256" y="16" width="16" height="16" fill="#1E1C32" />
<rect x="272" y="16" width="16" height="16" fill="#1E1C32" />
<rect x="0" y="32" width="16" height="16" fill="#1E1C32" />
<rect x="16" y="32" width="16" height="16" fill="#1E1C32" />
<rect x="64" y="32" width="16" height="16" fill="#1E1C32" />
<rect x="80" y="32" width="16" height="16" fill="#1E1C32" />
<rect x="192" y="32" width="16" height="16" fill="#1E1C32" />
<rect x="208" y="32" width="16" height="16" fill="#1E1C32" />
<rect x="256" y="32" width="16" height="16" fill="#1E1C32" />
<rect x="272" y="32" width="16" height="16" fill="#1E1C32" />
<rect x="0" y="48" width="16" height="16" fill="#1E1C32" />
<rect x="16" y="48" width="16" height="16" fill="#1E1C32" />
<rect x="64" y="48" width="16" height="16" fill="#1E1C32" />
<rect x="208" y="48" width="16" height="16" fill="#1E1C32" />
<rect x="256" y="48" width="16" height="16" fill="#1E1C32" />
<rect x="272" y="48" width="16" height="16" fill="#1E1C32" />
<rect x="0" y="64" width="16" height="16" fill="#1E1C32" />
<rect x="16" y="64" width="16" height="16" fill="#1E1C32" />
<rect x="32" y="64" width="16" height="16" fill="#1E1C32" />
<rect x="48" y="64" width="16" height="16" fill="#1E1C32" />
<rect x="64" y="64" width="16" height="16" fill="#1E1C32" />
<rect x="208" y="64" width="16" height="16" fill="#1E1C32" />
<rect x="224" y="64" width="16" height="16" fill="#1E1C32" />
<rect x="240" y="64" width="16" height="16" fill="#1E1C32" />
<rect x="256" y="64" width="16" height="16" fill="#1E1C32" />
<rect x="272" y="64" width="16" height="16" fill="#1E1C32" />
<rect x="0" y="80" width="16" height="16" fill="#1E1C32" />
<rect x="16" y="80" width="16" height="16" fill="#1E1C32" />
<rect x="32" y="80" width="16" height="16" fill="#1E1C32" />
<rect x="48" y="80" width="16" height="16" fill="#1E1C32" />
<rect x="64" y="80" width="16" height="16" fill="#1E1C32" />
<rect x="208" y="80" width="16" height="16" fill="#1E1C32" />
<rect x="224" y="80" width="16" height="16" fill="#1E1C32" />
<rect x="240" y="80" width="16" height="16" fill="#1E1C32" />
<rect x="256" y="80" width="16" height="16" fill="#1E1C32" />
<rect x="272" y="80" width="16" height="16" fill="#1E1C32" />
<rect x="0" y="96" width="16" height="16" fill="#1E1C32" />
<rect x="16" y="96" width="16" height="16" fill="#1E1C32" />
<rect x="64" y="96" width="16" height="16" fill="#1E1C32" />
<rect x="80" y="96" width="16" height="16" fill="#1E1C32" />
<rect x="192" y="96" width="16" height="16" fill="#1E1C32" />
<rect x="208" y="96" width="16" height="16" fill="#1E1C32" />
<rect x="256" y="96" width="16" height="16" fill="#1E1C32" />
<rect x="272" y="96" width="16" height="16" fill="#1E1C32" />
<rect x="0" y="112" width="16" height="16" fill="#1E1C32" />
<rect x="16" y="112" width="16" height="16" fill="#1E1C32" />
<rect x="64" y="112" width="16" height="16" fill="#1E1C32" />
<rect x="80" y="112" width="16" height="16" fill="#1E1C32" />
<rect x="96" y="112" width="16" height="16" fill="#1E1C32" />
<rect x="112" y="112" width="16" height="16" fill="#1E1C32" />
<rect x="128" y="112" width="16" height="16" fill="#1E1C32" />
<rect x="144" y="112" width="16" height="16" fill="#1E1C32" />
<rect x="160" y="112" width="16" height="16" fill="#1E1C32" />
<rect x="176" y="112" width="16" height="16" fill="#1E1C32" />
<rect x="192" y="112" width="16" height="16" fill="#1E1C32" />
<rect x="208" y="112" width="16" height="16" fill="#1E1C32" />
<rect x="256" y="112" width="16" height="16" fill="#1E1C32" />
<rect x="272" y="112" width="16" height="16" fill="#1E1C32" />
<rect x="0" y="128" width="16" height="16" fill="#1E1C32" />
<rect x="16" y="128" width="16" height="16" fill="#1E1C32" />
<rect x="64" y="128" width="16" height="16" fill="#1E1C32" />
<rect x="80" y="128" width="16" height="16" fill="#1E1C32" />
<rect x="192" y="128" width="16" height="16" fill="#1E1C32" />
<rect x="208" y="128" width="16" height="16" fill="#1E1C32" />
<rect x="256" y="128" width="16" height="16" fill="#1E1C32" />
<rect x="272" y="128" width="16" height="16" fill="#1E1C32" />
<rect x="0" y="144" width="16" height="16" fill="#1E1C32" />
<rect x="16" y="144" width="16" height="16" fill="#1E1C32" />
<rect x="32" y="144" width="16" height="16" fill="#1E1C32" />
<rect x="48" y="144" width="16" height="16" fill="#1E1C32" />
<rect x="64" y="144" width="16" height="16" fill="#1E1C32" />
<rect x="208" y="144" width="16" height="16" fill="#1E1C32" />
<rect x="224" y="144" width="16" height="16" fill="#1E1C32" />
<rect x="240" y="144" width="16" height="16" fill="#1E1C32" />
<rect x="256" y="144" width="16" height="16" fill="#1E1C32" />
<rect x="272" y="144" width="16" height="16" fill="#1E1C32" />
<rect x="0" y="160" width="16" height="16" fill="#1E1C32" />
<rect x="16" y="160" width="16" height="16" fill="#1E1C32" />
<rect x="32" y="160" width="16" height="16" fill="#1E1C32" />
<rect x="48" y="160" width="16" height="16" fill="#1E1C32" />
<rect x="64" y="160" width="16" height="16" fill="#1E1C32" />
<rect x="208" y="160" width="16" height="16" fill="#1E1C32" />
<rect x="224" y="160" width="16" height="16" fill="#1E1C32" />
<rect x="240" y="160" width="16" height="16" fill="#1E1C32" />
<rect x="256" y="160" width="16" height="16" fill="#1E1C32" />
<rect x="272" y="160" width="16" height="16" fill="#1E1C32" />
<rect x="0" y="176" width="16" height="16" fill="#1E1C32" />
<rect x="16" y="176" width="16" height="16" fill="#1E1C32" />
<rect x="64" y="176" width="16" height="16" fill="#1E1C32" />
<rect x="208" y="176" width="16" height="16" fill="#1E1C32" />
<rect x="256" y="176" width="16" height="16" fill="#1E1C32" />
<rect x="272" y="176" width="16" height="16" fill="#1E1C32" />
<rect x="0" y="192" width="16" height="16" fill="#1E1C32" />
<rect x="16" y="192" width="16" height="16" fill="#1E1C32" />
<rect x="64" y="192" width="16" height="16" fill="#1E1C32" />
<rect x="80" y="192" width="16" height="16" fill="#1E1C32" />
<rect x="192" y="192" width="16" height="16" fill="#1E1C32" />
<rect x="208" y="192" width="16" height="16" fill="#1E1C32" />
<rect x="256" y="192" width="16" height="16" fill="#1E1C32" />
<rect x="272" y="192" width="16" height="16" fill="#1E1C32" />
<rect x="0" y="208" width="16" height="16" fill="#1E1C32" />
<rect x="16" y="208" width="16" height="16" fill="#1E1C32" />
<rect x="32" y="208" width="16" height="16" fill="#1E1C32" />
<rect x="48" y="208" width="16" height="16" fill="#1E1C32" />
<rect x="64" y="208" width="16" height="16" fill="#1E1C32" />
<rect x="80" y="208" width="16" height="16" fill="#1E1C32" />
<rect x="96" y="208" width="16" height="16" fill="#1E1C32" />
<rect x="112" y="208" width="16" height="16" fill="#1E1C32" />
<rect x="128" y="208" width="16" height="16" fill="#1E1C32" />
<rect x="144" y="208" width="16" height="16" fill="#1E1C32" />
<rect x="160" y="208" width="16" height="16" fill="#1E1C32" />
<rect x="176" y="208" width="16" height="16" fill="#1E1C32" />
<rect x="192" y="208" width="16" height="16" fill="#1E1C32" />
<rect x="208" y="208" width="16" height="16" fill="#1E1C32" />
<rect x="224" y="208" width="16" height="16" fill="#1E1C32" />
<rect x="240" y="208" width="16" height="16" fill="#1E1C32" />
<rect x="256" y="208" width="16" height="16" fill="#1E1C32" />
<rect x="272" y="208" width="16" height="16" fill="#1E1C32" />
<rect x="16" y="224" width="16" height="16" fill="#1E1C32" />
<rect x="32" y="224" width="16" height="16" fill="#1E1C32" />
<rect x="48" y="224" width="16" height="16" fill="#1E1C32" />
<rect x="64" y="224" width="16" height="16" fill="#1E1C32" />
<rect x="80" y="224" width="16" height="16" fill="#1E1C32" />
<rect x="96" y="224" width="16" height="16" fill="#1E1C32" />
<rect x="112" y="224" width="16" height="16" fill="#1E1C32" />
<rect x="128" y="224" width="16" height="16" fill="#1E1C32" />
<rect x="144" y="224" width="16" height="16" fill="#1E1C32" />
<rect x="160" y="224" width="16" height="16" fill="#1E1C32" />
<rect x="176" y="224" width="16" height="16" fill="#1E1C32" />
<rect x="192" y="224" width="16" height="16" fill="#1E1C32" />
<rect x="208" y="224" width="16" height="16" fill="#1E1C32" />
<rect x="224" y="224" width="16" height="16" fill="#1E1C32" />
<rect x="240" y="224" width="16" height="16" fill="#1E1C32" />
<rect x="256" y="224" width="16" height="16" fill="#1E1C32" />
</svg>